<?xml version="1.0" encoding="iso-8859-1"?>
<!-- Generator: Adobe Illustrator 16.0.0, SVG Export Plug-In . SVG Version: 6.00 Build 0)  -->
<!DOCTYPE svg PUBLIC "-//W3C//DTD SVG 1.1//EN" "http://www.w3.org/Graphics/SVG/1.1/DTD/svg11.dtd">
<svg version="1.1" id="Capa_1" xmlns="http://www.w3.org/2000/svg" xmlns:xlink="http://www.w3.org/1999/xlink" x="0px" y="0px"
	 width="500.835px" height="500.834px" viewBox="0 0 581.835 581.834" style="enable-background:new 0 0 581.835 581.834; fill:#fff;"
	 xml:space="preserve">
<g>
	<g>
		<path d="M137.953,456.44c37.781,34.623,92.611,56.459,153.688,56.459c60.236,0,114.255-21.311,151.972-55.128
			c-45.867,11.888-96.71,18.566-150.261,18.566C237.81,476.337,185.135,469.191,137.953,456.44z"/>
		<path d="M467.061,254.402c-32.812-43.521-88.815-73.939-153.904-79.498l-0.584-31.049c15.752-5.173,27.068-20.003,26.729-37.46
			c-0.315-15.998-10.288-29.555-24.253-35.207c-14.339-4.484-24.148-1.004-27.797-0.327c-15.128,5.523-25.853,20.026-25.526,37.04
			c0.333,17.469,12.221,31.844,28.183,36.397l0.561,29.018c-0.012,0-0.012,0.42-0.023,0.619
			c-75.008,0.35-140.382,33.63-176.155,83.094c-22.817,7.03-43.106,15.554-59.717,25.491C22.192,296.802,0,316.957,0,345.507
			c0,24.312,16.12,42.528,40.858,56.226c19.828,14.97,47.497,27.23,79.778,36.619c0.327,0.373,83.094,26.039,172.705,26.039
			c60.323,0,117.145-8.477,166.877-23.4c0.035-0.035,0.07-0.07,0.105-0.117c1.156-0.314,2.277-0.665,3.421-0.969
			c27.629-8.513,52.968-19.033,75.458-31.213c26.554-16.814,42.633-37.53,42.633-61.982
			C581.858,304.521,533.947,273.413,467.061,254.402z M84.034,332.849c-14.789,0-26.77-8.372-26.77-18.695
			s11.98-18.695,26.77-18.695c14.783,0,26.776,8.373,26.776,18.695S98.829,332.849,84.034,332.849z M162.51,392.286
			c-19.32,0-34.984-10.953-34.984-24.439c0-13.5,15.665-24.453,34.984-24.453c19.326,0,34.991,10.953,34.991,24.453
			C197.501,381.344,181.836,392.286,162.51,392.286z M290.924,414.788c-21.463,0-38.862-12.156-38.862-27.149
			s17.399-27.161,38.862-27.161c21.462,0,38.861,12.168,38.861,27.161C329.785,402.643,312.386,414.788,290.924,414.788z
			 M433.291,392.286c-19.326,0-34.984-10.953-34.984-24.439c0-13.5,15.658-24.441,34.984-24.441
			c19.313,0,34.984,10.941,34.984,24.441C468.275,381.344,452.604,392.286,433.291,392.286z M513.174,335.979
			c-14.771,0-26.775-8.373-26.775-18.684c0-10.334,11.98-18.707,26.775-18.707s26.775,8.373,26.775,18.707
			C539.926,327.606,527.945,335.979,513.174,335.979z"/>
	</g>
</g>
<g>
</g>
<g>
</g>
<g>
</g>
<g>
</g>
<g>
</g>
<g>
</g>
<g>
</g>
<g>
</g>
<g>
</g>
<g>
</g>
<g>
</g>
<g>
</g>
<g>
</g>
<g>
</g>
<g>
</g>
</svg>
